<mxfile host="app.diagrams.net" agent="Mozilla/5.0 (Windows NT 10.0; Win64; x64) AppleWebKit/537.36 (KHTML, like Gecko) Chrome/137.0.0.0 Safari/537.36" version="27.1.1">
  <diagram name="Page-1" id="zNkAxf-HawqWzpL3nWZy">
    <mxGraphModel dx="931" dy="1136" grid="1" gridSize="10" guides="1" tooltips="1" connect="1" arrows="1" fold="1" page="0" pageScale="1" pageWidth="850" pageHeight="1100" math="0" shadow="0">
      <root>
        <mxCell id="0" />
        <mxCell id="1" parent="0" />
        <mxCell id="unNfeAQ17h-KNs7UbfqM-1" value="ClockPane" style="swimlane;fontStyle=1;align=center;verticalAlign=top;childLayout=stackLayout;horizontal=1;startSize=26;horizontalStack=0;resizeParent=1;resizeParentMax=0;resizeLast=0;collapsible=1;marginBottom=0;whiteSpace=wrap;html=1;" parent="1" vertex="1">
          <mxGeometry x="-200" y="-170" width="230" height="310" as="geometry" />
        </mxCell>
        <mxCell id="unNfeAQ17h-KNs7UbfqM-2" value="&lt;div style=&quot;line-height: 200%;&quot;&gt;&lt;div&gt;- hourHandVisible: boolean&amp;nbsp;&lt;/div&gt;&lt;div&gt;- minuteHandVisible: boolean&amp;nbsp;&lt;/div&gt;&lt;div&gt;- secondHandVisible: boolean&lt;/div&gt;&lt;/div&gt;" style="text;strokeColor=none;fillColor=none;align=left;verticalAlign=top;spacingLeft=4;spacingRight=4;overflow=hidden;rotatable=0;points=[[0,0.5],[1,0.5]];portConstraint=eastwest;whiteSpace=wrap;html=1;" parent="unNfeAQ17h-KNs7UbfqM-1" vertex="1">
          <mxGeometry y="26" width="230" height="74" as="geometry" />
        </mxCell>
        <mxCell id="unNfeAQ17h-KNs7UbfqM-3" value="" style="line;strokeWidth=1;fillColor=none;align=left;verticalAlign=middle;spacingTop=-1;spacingLeft=3;spacingRight=3;rotatable=0;labelPosition=right;points=[];portConstraint=eastwest;strokeColor=inherit;" parent="unNfeAQ17h-KNs7UbfqM-1" vertex="1">
          <mxGeometry y="100" width="230" height="8" as="geometry" />
        </mxCell>
        <mxCell id="unNfeAQ17h-KNs7UbfqM-4" value="&lt;div style=&quot;line-height: 200%;&quot;&gt;&lt;div&gt;+ isHourHandVisible(): boolean&amp;nbsp;&amp;nbsp;&lt;/div&gt;&lt;div&gt;+ setHourHandVisible(boolean): void&amp;nbsp;&amp;nbsp;&lt;/div&gt;&lt;div&gt;+ isMinuteHandVisible(): boolean&amp;nbsp; &amp;nbsp; &amp;nbsp;&lt;/div&gt;&lt;div&gt;+ setMinuteHandVisible(boolean): void&lt;/div&gt;&lt;div&gt;+ isSecondHandVisible(): boolean&amp;nbsp; &amp;nbsp; &amp;nbsp;&lt;/div&gt;&lt;div&gt;+ setSecondHandVisible(boolean): void&lt;/div&gt;&lt;div&gt;+ paintClock(): void&amp;nbsp; &amp;nbsp; &amp;nbsp; &amp;nbsp; &amp;nbsp; &amp;nbsp; &amp;nbsp; &amp;nbsp; &amp;nbsp;&amp;nbsp;&lt;/div&gt;&lt;div&gt;+ other existing methods&amp;nbsp;&lt;/div&gt;&lt;/div&gt;" style="text;strokeColor=none;fillColor=none;align=left;verticalAlign=top;spacingLeft=4;spacingRight=4;overflow=hidden;rotatable=0;points=[[0,0.5],[1,0.5]];portConstraint=eastwest;whiteSpace=wrap;html=1;" parent="unNfeAQ17h-KNs7UbfqM-1" vertex="1">
          <mxGeometry y="108" width="230" height="202" as="geometry" />
        </mxCell>
      </root>
    </mxGraphModel>
  </diagram>
</mxfile>
